<svg width="267" height="40" viewBox="0 0 267 40" fill="none" xmlns="http://www.w3.org/2000/svg">
<rect y="9.36157" width="11.3443" height="30.6384" rx="2" fill="#395B6E"/>
<rect x="64.8249" y="9.36157" width="11.3443" height="30.6384" rx="2" fill="#395B6E"/>
<rect x="12.9651" y="39.5746" width="14.4681" height="50.2392" rx="2" transform="rotate(-90 12.9651 39.5746)" fill="#395B6E"/>
<rect x="12.9651" y="22.9789" width="22.9788" height="24.3093" rx="2" transform="rotate(-90 12.9651 22.9789)" fill="#E74C3C"/>
<rect x="38.4899" y="22.9789" width="22.9788" height="24.3093" rx="2" transform="rotate(-90 38.4899 22.9789)" fill="#E74C3C"/>
<path d="M38.4899 18.7236V5.62481C38.4899 5.62481 42.3239 1.92067 44.5039 4.08081C50.5179 10.04 38.4899 18.7236 38.4899 18.7236Z" fill="#373737"/>
<path d="M37.2742 18.7236V5.62481C37.2742 5.62481 33.4402 1.92067 31.2602 4.08081C25.2461 10.04 37.2742 18.7236 37.2742 18.7236Z" fill="#373737"/>
<path d="M109.499 21.2329L109.512 25.333V27.7456L109.525 30.0132H102.037L102.023 23.2632L102.063 21.7998C102.063 21 101.944 20.4067 101.707 20.02C101.479 19.6245 101.193 19.4268 100.85 19.4268C100.2 19.4268 99.7954 19.752 99.6372 20.4023C99.5229 20.8594 99.4658 21.457 99.4658 22.1953V23.8828L99.479 24.4365V30L95.6953 30.0132H91.938L91.9248 19.6772V9.32812C93.6914 9.31055 96.2358 9.30176 99.5581 9.30176L99.5713 15.9463C100.187 15.252 100.934 14.6982 101.812 14.2852C102.7 13.8721 103.509 13.6655 104.238 13.6655C104.968 13.6655 105.684 13.8413 106.387 14.1929C107.09 14.5444 107.67 15.0103 108.127 15.5903C108.514 16.1968 108.844 16.9307 109.116 17.792C109.389 18.6445 109.525 19.3564 109.525 19.9277L109.499 21.2329ZM130.302 22.0239C130.285 22.1118 130.276 22.1646 130.276 22.1821V22.2876C130.25 23.7378 129.916 25.043 129.274 26.2031H129.287C128.391 27.5742 127.138 28.6289 125.53 29.3672C123.93 30.1055 122.353 30.4746 120.797 30.4746C119.241 30.4746 117.949 30.3208 116.921 30.0132C115.901 29.7144 114.957 29.2749 114.086 28.6948C113.216 28.1147 112.57 27.5566 112.148 27.0205C111.146 25.7549 110.646 23.9663 110.646 21.6548C110.646 21.5757 110.659 21.5098 110.685 21.457V21.2461C110.659 21.2109 110.646 21.1758 110.646 21.1406L110.672 20.9956H110.659C110.826 19.4575 111.151 18.4468 111.634 17.9634C111.634 17.8667 111.696 17.7568 111.819 17.6338V17.647L112.017 17.3306C113.054 16.0034 114.24 15.0938 115.576 14.6016L116.038 14.4302C116.618 14.1489 117.431 13.938 118.477 13.7974L118.898 13.7578C118.96 13.749 119.083 13.7402 119.268 13.7314C119.461 13.7227 119.597 13.7051 119.676 13.6787L120.243 13.6919C120.27 13.6831 120.3 13.6787 120.335 13.6787C120.371 13.6787 120.41 13.6831 120.454 13.6919L120.441 13.6787C120.494 13.7051 120.573 13.7183 120.678 13.7183C120.713 13.6831 120.775 13.6655 120.863 13.6655C122.77 13.6655 124.392 14.0566 125.728 14.8389L125.991 14.9575C128.865 16.3374 130.302 18.6929 130.302 22.0239ZM122.102 22.103C122.067 20.354 121.816 19.1719 121.351 18.5566C121.157 18.3018 120.92 18.1743 120.639 18.1743C120.366 18.1743 120.125 18.3369 119.914 18.6621C119.703 18.9785 119.531 19.4795 119.399 20.165C119.276 20.8506 119.215 21.4614 119.215 21.9976C119.215 22.5249 119.237 22.9819 119.281 23.3687C119.333 23.7466 119.408 24.1509 119.505 24.5815C119.602 25.0034 119.751 25.3594 119.953 25.6494C120.155 25.9307 120.384 26.0713 120.639 26.0713C121.614 26.0713 122.102 24.7485 122.102 22.103ZM140.164 15.498L140.137 23.8696C140.137 24.7661 140.458 25.2144 141.1 25.2144C141.636 25.2144 141.904 24.7397 141.904 23.7905V14.2456L146.241 14.2324H150.539L150.552 29.9868H143.169L142.55 27.8511C141.425 29.6001 139.882 30.4746 137.922 30.4746C136.235 30.4746 134.815 29.9912 133.664 29.0244L133.677 28.9321C133.528 28.8882 133.343 28.73 133.124 28.4575C132.904 28.1763 132.737 27.9346 132.623 27.7324C132.051 26.6953 131.766 25.1704 131.766 23.1577L131.779 22.7358V14.2456H135.971L140.164 14.2324V15.498ZM168.113 17.647L166.913 17.6338C166.201 17.6338 165.098 17.6426 163.604 17.6602C163.499 17.3701 163.283 17.124 162.958 16.9219C162.642 16.7197 162.29 16.6187 161.903 16.6187C161.517 16.6187 161.2 16.7065 160.954 16.8823C160.708 17.0493 160.585 17.2866 160.585 17.5942C160.585 17.9019 160.699 18.1787 160.928 18.4248C161.165 18.6709 161.495 18.8467 161.917 18.9521C162.338 19.0488 162.756 19.1147 163.169 19.1499C163.591 19.1851 164.079 19.2202 164.632 19.2554C165.195 19.2905 165.617 19.3345 165.898 19.3872C166.188 19.4312 166.553 19.4795 166.992 19.5322C167.774 19.6377 168.464 19.7827 169.062 19.9673C169.668 20.1431 170.301 20.5166 170.96 21.0879C171.092 21.1494 171.268 21.312 171.488 21.5757C171.883 22.1821 172.134 23.061 172.239 24.2124C172.195 25.478 171.734 26.603 170.855 27.5874C169.976 28.563 168.864 29.2705 167.52 29.71C167.414 29.7627 167.282 29.7979 167.124 29.8154L166.676 29.9209C165.823 30.167 165.085 30.29 164.461 30.29C164.083 30.4131 163.477 30.4746 162.642 30.4746L162.312 30.4614H161.35L161.205 30.4746C159.842 30.4746 158.383 30.2549 156.828 29.8154V29.8286C153.514 29.0112 151.853 27.5874 151.844 25.5571C152.31 25.5923 152.956 25.6099 153.782 25.6099C154.608 25.6099 155.725 25.6055 157.131 25.5967C158.546 25.5791 159.618 25.5703 160.348 25.5703C160.339 25.623 160.334 25.7109 160.334 25.834C160.334 26.2207 160.532 26.5371 160.928 26.7832C161.323 27.0293 161.78 27.1523 162.299 27.1523C162.817 27.1523 163.226 27.0513 163.525 26.8491C163.824 26.647 163.973 26.3877 163.973 26.0713C163.973 25.7461 163.89 25.478 163.723 25.2671C163.556 25.0474 163.31 24.8848 162.984 24.7793C162.659 24.6738 162.356 24.5991 162.075 24.5552C161.802 24.5024 161.446 24.4585 161.007 24.4233C160.567 24.3882 160.242 24.353 160.031 24.3179C159.82 24.2827 159.508 24.2388 159.095 24.186C158.682 24.1245 158.317 24.0762 158.001 24.041C157.693 23.9971 157.329 23.9355 156.907 23.8564C156.494 23.7773 156.125 23.6982 155.799 23.6191C155.483 23.5312 155.14 23.417 154.771 23.2764C154.402 23.1357 154.081 22.9819 153.809 22.8149C152.481 21.9888 151.818 20.7847 151.818 19.2026C151.818 17.7876 152.218 16.6934 153.018 15.9199C154.02 14.9619 155.646 14.3379 157.896 14.0479C158.124 14.0127 158.449 13.9512 158.871 13.8633C159.293 13.7666 159.583 13.7183 159.741 13.7183C159.899 13.7183 160.005 13.7271 160.058 13.7446L161.732 13.6523L164.052 13.7578C164.14 13.7666 164.395 13.7842 164.817 13.8105C165.863 13.8896 166.781 14.0391 167.572 14.2588C168.372 14.4697 169.132 14.8872 169.853 15.5112C170.583 16.1353 171 16.812 171.105 17.5415L171.013 17.5151L168.113 17.647ZM180.215 13.8369C180.611 13.7227 181.033 13.6655 181.481 13.6655C181.929 13.6655 182.355 13.6831 182.76 13.7183L183.313 13.771C184.184 13.8501 184.852 13.9512 185.317 14.0742V14.061L185.594 14.1797C187.44 14.751 188.877 15.6211 189.905 16.79V16.7769C190.143 17.0581 190.433 17.4844 190.775 18.0557C191.127 18.6182 191.303 19.0093 191.303 19.229L191.408 19.585L191.474 19.9673C191.641 20.5562 191.725 21.0483 191.725 21.4438C191.725 21.8394 191.729 22.1426 191.738 22.3535H180.875V22.7886C180.927 22.9907 180.954 23.2017 180.954 23.4214C180.954 23.6411 180.954 23.8169 180.954 23.9487C180.962 24.0718 180.976 24.1948 180.993 24.3179C181.011 24.4321 181.02 24.5288 181.02 24.6079C181.028 24.6782 181.05 24.7661 181.085 24.8716C181.121 24.9683 181.138 25.0342 181.138 25.0693C181.147 25.1045 181.173 25.1748 181.217 25.2803C181.27 25.3857 181.31 25.4868 181.336 25.5835C181.371 25.6714 181.433 25.7593 181.521 25.8472V25.834L181.666 26.1108C181.833 26.2954 182.061 26.4272 182.351 26.5063C182.834 26.4009 183.16 26.1504 183.327 25.7549C183.502 25.3594 183.647 24.8672 183.762 24.2783C184.078 24.1904 184.526 24.1465 185.106 24.1465L186.794 24.186H191.659C191.553 25.2583 191.237 26.2427 190.709 27.1392H190.723C190.266 27.8599 189.554 28.4795 188.587 28.998C185.854 29.9561 184.1 30.4351 183.327 30.4351C183.186 30.4351 183.072 30.4263 182.984 30.4087H182.681L182.562 30.4219H182.443C182.373 30.4219 182.285 30.4131 182.18 30.3955C182.092 30.4482 181.986 30.4746 181.863 30.4746L180.716 30.3428C180.655 30.3691 180.527 30.3823 180.334 30.3823C180.149 30.3823 179.657 30.2637 178.857 30.0264V30.0396L178.541 29.9473L178.225 29.8418C176.906 29.4551 175.777 28.7783 174.836 27.8115C173.896 26.8359 173.294 25.7021 173.03 24.4102C173.004 24.252 172.956 24.0146 172.885 23.6982C172.815 23.373 172.78 23.1533 172.78 23.0391V22.4062C172.78 22.2568 172.784 22.1426 172.793 22.0635V21.8657C172.793 20.0024 173.347 18.394 174.454 17.0405C175.562 15.6782 177.047 14.7202 178.91 14.1665L179.227 14.0742C179.692 13.9951 180.026 13.9116 180.229 13.8237L180.215 13.8369ZM184.157 20.6133L184.434 20.4419C184.285 19.4927 184.144 18.8862 184.012 18.6226C183.88 18.3501 183.753 18.1172 183.63 17.9238C183.401 17.5547 183.098 17.3701 182.72 17.3701C182.351 17.3701 182.035 17.5547 181.771 17.9238C181.305 18.5742 181.011 19.4883 180.888 20.666C181.45 20.6309 181.969 20.6133 182.443 20.6133H184.157ZM219.608 16.8691C221.243 14.7334 222.873 13.6655 224.499 13.6655C226.125 13.6655 227.558 14.2676 228.797 15.4717C229.403 16.0693 229.812 16.7329 230.023 17.4624L230.115 17.8184C230.353 18.6445 230.471 19.1587 230.471 19.3608C230.471 19.5542 230.454 19.7124 230.418 19.8354C230.48 19.8882 230.511 19.9673 230.511 20.0728L230.484 20.5869C230.502 21.2197 230.511 21.6636 230.511 21.9185V30.0132H222.521L222.508 22.2612L222.521 21.9712C222.521 20.6968 222.166 20.0596 221.454 20.0596C220.654 20.0596 220.254 20.7627 220.254 22.1689L220.28 23.0786V30L216.615 30.0132H212.963L212.95 22.9336L212.977 22.0767C212.977 20.9341 212.625 20.2573 211.922 20.0464C211.096 20.0903 210.683 20.7275 210.683 21.958L210.709 22.749V30L206.464 30.0132H202.245L202.232 22.0898V14.2192L205.844 14.2061H209.47L209.562 14.5225C209.887 15.6738 210.133 16.5703 210.3 17.2119C210.872 16.2275 211.535 15.3926 212.291 14.707C213.056 14.0127 213.816 13.6655 214.572 13.6655C214.809 13.6655 215.046 13.6655 215.284 13.6655C216.048 13.6655 216.831 13.9819 217.63 14.6147C218.43 15.2388 219.089 15.9902 219.608 16.8691ZM238.434 13.8369C238.83 13.7227 239.251 13.6655 239.7 13.6655C240.148 13.6655 240.574 13.6831 240.979 13.7183L241.532 13.771C242.402 13.8501 243.07 13.9512 243.536 14.0742V14.061L243.813 14.1797C245.659 14.751 247.096 15.6211 248.124 16.79V16.7769C248.361 17.0581 248.651 17.4844 248.994 18.0557C249.346 18.6182 249.521 19.0093 249.521 19.229L249.627 19.585L249.693 19.9673C249.86 20.5562 249.943 21.0483 249.943 21.4438C249.943 21.8394 249.948 22.1426 249.957 22.3535H239.093V22.7886C239.146 22.9907 239.172 23.2017 239.172 23.4214C239.172 23.6411 239.172 23.8169 239.172 23.9487C239.181 24.0718 239.194 24.1948 239.212 24.3179C239.229 24.4321 239.238 24.5288 239.238 24.6079C239.247 24.6782 239.269 24.7661 239.304 24.8716C239.339 24.9683 239.357 25.0342 239.357 25.0693C239.366 25.1045 239.392 25.1748 239.436 25.2803C239.489 25.3857 239.528 25.4868 239.555 25.5835C239.59 25.6714 239.651 25.7593 239.739 25.8472V25.834L239.884 26.1108C240.051 26.2954 240.28 26.4272 240.57 26.5063C241.053 26.4009 241.378 26.1504 241.545 25.7549C241.721 25.3594 241.866 24.8672 241.98 24.2783C242.297 24.1904 242.745 24.1465 243.325 24.1465L245.013 24.186H249.877C249.772 25.2583 249.456 26.2427 248.928 27.1392H248.941C248.484 27.8599 247.772 28.4795 246.806 28.998C244.072 29.9561 242.319 30.4351 241.545 30.4351C241.405 30.4351 241.291 30.4263 241.203 30.4087H240.899L240.781 30.4219H240.662C240.592 30.4219 240.504 30.4131 240.398 30.3955C240.311 30.4482 240.205 30.4746 240.082 30.4746L238.935 30.3428C238.874 30.3691 238.746 30.3823 238.553 30.3823C238.368 30.3823 237.876 30.2637 237.076 30.0264V30.0396L236.76 29.9473L236.443 29.8418C235.125 29.4551 233.996 28.7783 233.055 27.8115C232.115 26.8359 231.513 25.7021 231.249 24.4102C231.223 24.252 231.174 24.0146 231.104 23.6982C231.034 23.373 230.999 23.1533 230.999 23.0391V22.4062C230.999 22.2568 231.003 22.1426 231.012 22.0635V21.8657C231.012 20.0024 231.565 18.394 232.673 17.0405C233.78 15.6782 235.266 14.7202 237.129 14.1665L237.445 14.0742C237.911 13.9951 238.245 13.9116 238.447 13.8237L238.434 13.8369ZM242.376 20.6133L242.653 20.4419C242.503 19.4927 242.363 18.8862 242.231 18.6226C242.099 18.3501 241.972 18.1172 241.849 17.9238C241.62 17.5547 241.317 17.3701 240.939 17.3701C240.57 17.3701 240.253 17.5547 239.99 17.9238C239.524 18.5742 239.229 19.4883 239.106 20.666C239.669 20.6309 240.188 20.6133 240.662 20.6133H242.376Z" fill="#395B6E"/>
</svg>
